<svg width="39" height="39" viewBox="0 0 39 39" fill="none" xmlns="http://www.w3.org/2000/svg">
<path d="M18.2025 19.2913V23.8029H16.7708V12.6621H20.5663C21.5283 12.6621 22.3485 12.9828 23.0197 13.6241C23.7057 14.2654 24.0487 15.0483 24.0487 15.973C24.0487 16.92 23.7057 17.703 23.0197 18.3368C22.356 18.9707 21.5358 19.2839 20.5663 19.2839H18.2025V19.2913ZM18.2025 14.0342V17.9193H20.5962C21.1629 17.9193 21.6402 17.7254 22.013 17.3451C22.3933 16.9648 22.5872 16.5025 22.5872 15.9805C22.5872 15.4659 22.3933 15.011 22.013 14.6308C21.6401 14.2355 21.1704 14.0417 20.5962 14.0417H18.2025V14.0342Z" fill="#383E41"/>
<path d="M27.7921 15.9282C28.851 15.9282 29.6862 16.2116 30.2976 16.7783C30.9092 17.345 31.2148 18.1205 31.2148 19.1049V23.8028H29.8502V22.7439H29.7906C29.2015 23.6164 28.411 24.0489 27.4267 24.0489C26.5841 24.0489 25.8831 23.8028 25.3164 23.3032C24.7497 22.8036 24.4663 22.1846 24.4663 21.439C24.4663 20.6485 24.7646 20.0222 25.3612 19.5598C25.9578 19.09 26.7557 18.8589 27.7474 18.8589C28.5975 18.8589 29.2985 19.0155 29.8428 19.3286V19.0005C29.8428 18.5009 29.649 18.0834 29.2537 17.7329C28.8585 17.3824 28.3962 17.2109 27.8667 17.2109C27.0688 17.2109 26.435 17.5464 25.9726 18.225L24.7123 17.4346C25.4059 16.4278 26.435 15.9282 27.7921 15.9282ZM25.9428 21.4613C25.9428 21.8341 26.0994 22.1474 26.42 22.3934C26.7333 22.6395 27.1061 22.7662 27.5312 22.7662C28.1352 22.7662 28.6721 22.5425 29.1419 22.0951C29.6117 21.6477 29.8503 21.1257 29.8503 20.5217C29.4029 20.1712 28.784 19.9922 27.9861 19.9922C27.4044 19.9922 26.9197 20.1339 26.5319 20.4098C26.1367 20.7006 25.9428 21.0512 25.9428 21.4613Z" fill="#383E41"/>
<path d="M39 16.1743L34.2275 27.151H32.751L34.5257 23.3106L31.3789 16.1743H32.9374L35.2043 21.6477H35.2342L37.4414 16.1743H39Z" fill="#383E41"/>
<path d="M12.3883 17.0386H6.38696V19.4994L9.84326 19.5001C9.70311 20.3189 9.25194 21.0169 8.56068 21.4822V21.4827C8.56091 21.4825 8.56121 21.4824 8.56144 21.4822L8.49921 22.953L10.6188 23.078C10.6185 23.0782 10.6182 23.0785 10.618 23.0788C11.8193 21.967 12.5077 20.3234 12.5077 18.3816C12.5076 17.9148 12.4659 17.4681 12.3883 17.0386Z" fill="#0085F7"/>
<path d="M8.56134 21.4823C8.56112 21.4824 8.56081 21.4826 8.56058 21.4827C7.988 21.8687 7.25073 22.0945 6.38839 22.0945C4.72175 22.0945 3.30792 20.9715 2.80161 19.4577H2.80138C2.80146 19.4579 2.80153 19.4582 2.80161 19.4585L1.03206 19.1782L0.679688 21.1047C1.73124 23.1909 3.89208 24.6224 6.38846 24.6224C8.11353 24.6224 9.56285 24.0552 10.618 23.0788C10.6183 23.0785 10.6186 23.0783 10.6188 23.078L8.56134 21.4823Z" fill="#00A94B"/>
<path d="M2.60173 18.2359C2.60173 17.8109 2.67257 17.4 2.8016 17.0137L2.24905 15.3672H0.679301C0.244588 16.23 0 17.2038 0 18.2359C0 19.268 0.24535 20.2418 0.679301 21.1046L0.679605 21.1044L2.8016 19.4581C2.80153 19.4578 2.80145 19.4576 2.80137 19.4573C2.67249 19.0713 2.60173 18.6607 2.60173 18.2359Z" fill="#FFBB00"/>
<path d="M6.38828 11.8491C3.89243 11.8491 1.73068 13.2808 0.679199 15.3673L2.80142 17.0139C3.30774 15.5001 4.72156 14.3771 6.38821 14.3771C7.32999 14.3771 8.17345 14.7015 8.83934 15.3354L10.6626 13.5136C9.55528 12.4822 8.11159 11.8491 6.38828 11.8491Z" fill="#FF4031"/>
</svg>
