<svg width="24" height="24" viewBox="0 0 24 24" fill="none" xmlns="http://www.w3.org/2000/svg">
<path d="M20.5288 1.77465C19.2792 0.591548 16.9586 0 13.7454 0H4.81981C4.28427 0 3.74874 0.44366 3.57023 0.887322L0 20.2606C0 20.7042 0.357023 21 0.714046 21H6.2479L7.67599 13.7535V14.0493C7.8545 13.6056 8.39004 13.162 8.92557 13.162H11.6032C16.7801 13.162 20.7073 11.3873 21.9569 6.50704C21.9569 6.35915 21.9569 6.21127 21.9569 6.06338C21.7784 6.06338 21.7784 6.06338 21.9569 6.06338C22.1354 4.14084 21.7784 2.95774 20.5288 1.77465Z" fill="#263B80"/>
<path d="M21.8923 6C21.8923 6.15126 21.8923 6.30252 21.8923 6.45378C20.6562 11.5966 16.7715 13.2605 11.6506 13.2605H9.00188C8.47214 13.2605 7.94239 13.7143 7.76581 14.1681L6 23.395C6 23.6975 6.17658 24 6.70632 24H11.2974C11.8272 24 12.3569 23.6975 12.3569 23.2437V23.0924L13.2398 18.4034V18.1008C13.2398 17.6471 13.7696 17.3445 14.2993 17.3445H15.0056C19.4202 17.3445 22.9518 15.8319 23.8347 11.2941C24.1879 9.47899 24.0113 7.81513 22.9518 6.7563C22.7752 6.45378 22.4221 6.15126 21.8923 6Z" fill="#139AD6"/>
<path d="M20.4444 5.45C20.2716 5.45 20.0988 5.3 19.9259 5.3C19.7531 5.3 19.5802 5.3 19.4074 5.15C18.716 5 18.0247 5 17.1605 5H10.4198C10.2469 5 10.0741 5 9.90123 5.15C9.55556 5.3 9.38272 5.6 9.38272 5.9L8 13.7V14C8.17284 13.55 8.69136 13.1 9.20988 13.1H11.8025C16.8148 13.1 20.6173 11.3 21.8272 6.35C21.8272 6.2 21.8272 6.05 22 5.9C21.6543 5.75 21.4815 5.6 21.1358 5.6C20.6173 5.45 20.6173 5.45 20.4444 5.45Z" fill="#232C65"/>
</svg>
