<svg width="30" height="30" viewBox="0 0 30 30" fill="none" xmlns="http://www.w3.org/2000/svg">
<g clip-path="url(#clip0_31_13852)">
<path d="M11.16 19.1373L12.6228 10.9087H14.9085L13.4914 19.1373H11.16Z" fill="#3C58BF"/>
<path d="M11.16 19.1373L13.0343 10.9087H14.9085L13.4914 19.1373H11.16Z" fill="#293688"/>
<path d="M21.7657 11C21.3086 10.8171 20.5771 10.6343 19.6629 10.6343C17.3771 10.6343 15.7314 11.7771 15.7314 13.4228C15.7314 14.6571 16.8743 15.2971 17.7886 15.7086C18.7029 16.12 18.9771 16.3943 18.9771 16.76C18.9771 17.3086 18.2457 17.5828 17.6057 17.5828C16.6914 17.5828 16.1886 17.4457 15.4114 17.1257L15.0914 16.9886L14.7714 18.8628C15.32 19.0914 16.3257 19.32 17.3771 19.32C19.8 19.32 21.4 18.1771 21.4 16.44C21.4 15.48 20.8057 14.7486 19.4343 14.1543C18.6114 13.7428 18.1086 13.5143 18.1086 13.1028C18.1086 12.7371 18.52 12.3714 19.4343 12.3714C20.2114 12.3714 20.76 12.5086 21.1714 12.6914L21.4 12.7828L21.7657 11Z" fill="#3C58BF"/>
<path d="M21.7657 11C21.3086 10.8171 20.5771 10.6343 19.6629 10.6343C17.3771 10.6343 16.1429 11.7771 16.1429 13.4228C16.1429 14.6571 16.8743 15.2971 17.7886 15.7086C18.7029 16.12 18.9771 16.3943 18.9771 16.76C18.9771 17.3086 18.2457 17.5828 17.6057 17.5828C16.6914 17.5828 16.1886 17.4457 15.4114 17.1257L15.0914 16.9886L14.7714 18.8628C15.32 19.0914 16.3257 19.32 17.3771 19.32C19.8 19.32 21.4 18.1771 21.4 16.44C21.4 15.48 20.8057 14.7486 19.4343 14.1543C18.6114 13.7428 18.1086 13.5143 18.1086 13.1028C18.1086 12.7371 18.52 12.3714 19.4343 12.3714C20.2114 12.3714 20.76 12.5086 21.1714 12.6914L21.4 12.7828L21.7657 11Z" fill="#293688"/>
<path d="M25.6971 10.9087C25.1485 10.9087 24.7371 10.9544 24.5085 11.503L21.08 19.1373H23.5485L24.0057 17.7658H26.9314L27.2057 19.1373H29.4L27.48 10.9087H25.6971ZM24.6457 16.3944C24.7828 15.983 25.56 13.9715 25.56 13.9715C25.56 13.9715 25.7428 13.4687 25.88 13.1487L26.0171 13.9258C26.0171 13.9258 26.4742 15.983 26.5657 16.4401H24.6457V16.3944Z" fill="#3C58BF"/>
<path d="M26.2457 10.9087C25.6971 10.9087 25.2857 10.9544 25.0571 11.503L21.08 19.1373H23.5485L24.0057 17.7658H26.9314L27.2057 19.1373H29.4L27.48 10.9087H26.2457ZM24.6457 16.3944C24.8285 15.9373 25.56 13.9715 25.56 13.9715C25.56 13.9715 25.7428 13.4687 25.88 13.1487L26.0171 13.9258C26.0171 13.9258 26.4742 15.983 26.5657 16.4401H24.6457V16.3944Z" fill="#293688"/>
<path d="M6.95427 16.6689L6.7257 15.4803C6.31427 14.1089 4.98855 12.6003 3.5257 11.8689L5.58284 19.1832H8.05141L11.7543 10.9546H9.2857L6.95427 16.6689Z" fill="#3C58BF"/>
<path d="M6.95427 16.6689L6.7257 15.4803C6.31427 14.1089 4.98855 12.6003 3.5257 11.8689L5.58284 19.1832H8.05141L11.7543 10.9546H9.74284L6.95427 16.6689Z" fill="#293688"/>
<path d="M0.599976 10.9087L1.0114 11.0001C3.93712 11.6858 5.94855 13.423 6.72569 15.4801L5.90283 11.5944C5.76569 11.0458 5.35426 10.9087 4.8514 10.9087H0.599976Z" fill="#FFBC00"/>
<path d="M0.599976 10.9087C3.52569 11.5944 5.94855 13.3773 6.72569 15.4344L5.94855 12.1887C5.8114 11.6401 5.35426 11.3201 4.8514 11.3201L0.599976 10.9087Z" fill="#F7981D"/>
<path d="M0.599976 10.9087C3.52569 11.5944 5.94855 13.3773 6.72569 15.4344L6.17712 13.6515C6.03997 13.103 5.85712 12.5544 5.21712 12.3258L0.599976 10.9087Z" fill="#ED7C00"/>
<path d="M9.23998 16.3942L7.6857 14.8399L6.95427 16.577L6.77141 15.4342C6.35998 14.0628 5.03427 12.5542 3.57141 11.8228L5.62855 19.137H8.09712L9.23998 16.3942Z" fill="#051244"/>
<path d="M13.4914 19.1369L11.5257 17.1255L11.16 19.1369H13.4914Z" fill="#051244"/>
<path d="M18.7486 16.3027C18.9314 16.4856 19.0229 16.6227 18.9771 16.8056C18.9771 17.3542 18.2457 17.6284 17.6057 17.6284C16.6914 17.6284 16.1886 17.4913 15.4114 17.1713L15.0914 17.0342L14.7714 18.9084C15.32 19.137 16.3257 19.3656 17.3771 19.3656C18.84 19.3656 20.0286 18.9542 20.7143 18.2227L18.7486 16.3027Z" fill="#051244"/>
<path d="M21.4 19.137H23.5485L24.0057 17.7656H26.9314L27.2057 19.137H29.4L28.6228 15.7999L25.88 13.1484L26.0171 13.8799C26.0171 13.8799 26.4742 15.937 26.5657 16.3942H24.6457C24.8285 15.937 25.56 13.9713 25.56 13.9713C25.56 13.9713 25.7428 13.4684 25.88 13.1484" fill="#051244"/>
</g>
<defs>
<clipPath id="clip0_31_13852">
<rect width="28.8" height="28.8" fill="white" transform="translate(0.599976 0.600098)"/>
</clipPath>
</defs>
</svg>
